<mxfile host="app.diagrams.net" modified="2020-12-07T20:43:44.106Z" agent="5.0 (Windows NT 10.0; Win64; x64) AppleWebKit/537.36 (KHTML, like Gecko) Chrome/87.0.4280.88 Safari/537.36" etag="E3G5VzJe50JZqsVZugWE" version="13.10.9" type="github">
  <diagram id="NEwld3anYWmQanBMHAa-" name="Page-1">
    <mxGraphModel dx="1360" dy="802" grid="1" gridSize="10" guides="1" tooltips="1" connect="1" arrows="1" fold="1" page="1" pageScale="1" pageWidth="850" pageHeight="1100" math="0" shadow="0">
      <root>
        <mxCell id="0" />
        <mxCell id="1" parent="0" />
        <mxCell id="vw8RD5YFw0DvRqKHAB3R-2" value="" style="rounded=1;whiteSpace=wrap;html=1;fillColor=#dae8fc;strokeColor=none;" vertex="1" parent="1">
          <mxGeometry x="80" y="159.5" width="100" height="80" as="geometry" />
        </mxCell>
        <mxCell id="vw8RD5YFw0DvRqKHAB3R-4" value="VM-1" style="text;html=1;strokeColor=none;fillColor=none;align=center;verticalAlign=middle;whiteSpace=wrap;rounded=0;" vertex="1" parent="1">
          <mxGeometry x="110" y="140" width="40" height="20" as="geometry" />
        </mxCell>
        <mxCell id="vw8RD5YFw0DvRqKHAB3R-8" value="App" style="whiteSpace=wrap;html=1;aspect=fixed;fillColor=#1ba1e2;fontColor=#ffffff;strokeColor=none;" vertex="1" parent="1">
          <mxGeometry x="100" y="170" width="30" height="30" as="geometry" />
        </mxCell>
        <mxCell id="vw8RD5YFw0DvRqKHAB3R-9" value="Falken" style="ellipse;whiteSpace=wrap;html=1;fillColor=#008a00;strokeColor=#005700;fontColor=#ffffff;" vertex="1" parent="1">
          <mxGeometry x="130" y="210" width="40" height="20" as="geometry" />
        </mxCell>
        <mxCell id="vw8RD5YFw0DvRqKHAB3R-11" value="" style="endArrow=classic;startArrow=classic;html=1;edgeStyle=orthogonalEdgeStyle;rounded=0;exitX=1;exitY=0.5;exitDx=0;exitDy=0;entryX=0.5;entryY=0;entryDx=0;entryDy=0;" edge="1" parent="1" source="vw8RD5YFw0DvRqKHAB3R-8" target="vw8RD5YFw0DvRqKHAB3R-9">
          <mxGeometry width="50" height="50" relative="1" as="geometry">
            <mxPoint x="300" y="220" as="sourcePoint" />
            <mxPoint x="450" y="390" as="targetPoint" />
          </mxGeometry>
        </mxCell>
        <mxCell id="vw8RD5YFw0DvRqKHAB3R-14" value="" style="ellipse;shape=cloud;whiteSpace=wrap;html=1;" vertex="1" parent="1">
          <mxGeometry x="60" y="310" width="700" height="240" as="geometry" />
        </mxCell>
        <mxCell id="vw8RD5YFw0DvRqKHAB3R-16" value="" style="rounded=1;whiteSpace=wrap;html=1;fillColor=#dae8fc;strokeColor=none;" vertex="1" parent="1">
          <mxGeometry x="239" y="152.5" width="100" height="80" as="geometry" />
        </mxCell>
        <mxCell id="vw8RD5YFw0DvRqKHAB3R-17" value="VM-2" style="text;html=1;strokeColor=none;fillColor=none;align=center;verticalAlign=middle;whiteSpace=wrap;rounded=0;" vertex="1" parent="1">
          <mxGeometry x="265" y="133" width="40" height="20" as="geometry" />
        </mxCell>
        <mxCell id="vw8RD5YFw0DvRqKHAB3R-18" value="App" style="whiteSpace=wrap;html=1;aspect=fixed;fillColor=#1ba1e2;fontColor=#ffffff;strokeColor=none;" vertex="1" parent="1">
          <mxGeometry x="255" y="163" width="30" height="30" as="geometry" />
        </mxCell>
        <mxCell id="vw8RD5YFw0DvRqKHAB3R-19" value="Falken" style="ellipse;whiteSpace=wrap;html=1;fillColor=#008a00;strokeColor=#005700;fontColor=#ffffff;" vertex="1" parent="1">
          <mxGeometry x="285" y="203" width="40" height="20" as="geometry" />
        </mxCell>
        <mxCell id="vw8RD5YFw0DvRqKHAB3R-20" value="" style="endArrow=classic;startArrow=classic;html=1;edgeStyle=orthogonalEdgeStyle;rounded=0;exitX=1;exitY=0.5;exitDx=0;exitDy=0;entryX=0.5;entryY=0;entryDx=0;entryDy=0;" edge="1" parent="1" source="vw8RD5YFw0DvRqKHAB3R-18" target="vw8RD5YFw0DvRqKHAB3R-19">
          <mxGeometry width="50" height="50" relative="1" as="geometry">
            <mxPoint x="455" y="213" as="sourcePoint" />
            <mxPoint x="605" y="383" as="targetPoint" />
          </mxGeometry>
        </mxCell>
        <mxCell id="vw8RD5YFw0DvRqKHAB3R-21" value="" style="rounded=1;whiteSpace=wrap;html=1;fillColor=#dae8fc;strokeColor=none;" vertex="1" parent="1">
          <mxGeometry x="385" y="145" width="100" height="80" as="geometry" />
        </mxCell>
        <mxCell id="vw8RD5YFw0DvRqKHAB3R-22" value="VM-3" style="text;html=1;strokeColor=none;fillColor=none;align=center;verticalAlign=middle;whiteSpace=wrap;rounded=0;" vertex="1" parent="1">
          <mxGeometry x="415" y="129.5" width="40" height="20" as="geometry" />
        </mxCell>
        <mxCell id="vw8RD5YFw0DvRqKHAB3R-23" value="App" style="whiteSpace=wrap;html=1;aspect=fixed;fillColor=#1ba1e2;fontColor=#ffffff;strokeColor=none;" vertex="1" parent="1">
          <mxGeometry x="405" y="159.5" width="30" height="30" as="geometry" />
        </mxCell>
        <mxCell id="vw8RD5YFw0DvRqKHAB3R-24" value="Falken" style="ellipse;whiteSpace=wrap;html=1;fillColor=#008a00;strokeColor=#005700;fontColor=#ffffff;" vertex="1" parent="1">
          <mxGeometry x="435" y="199.5" width="40" height="20" as="geometry" />
        </mxCell>
        <mxCell id="vw8RD5YFw0DvRqKHAB3R-25" value="" style="endArrow=classic;startArrow=classic;html=1;edgeStyle=orthogonalEdgeStyle;rounded=0;exitX=1;exitY=0.5;exitDx=0;exitDy=0;entryX=0.5;entryY=0;entryDx=0;entryDy=0;" edge="1" source="vw8RD5YFw0DvRqKHAB3R-23" target="vw8RD5YFw0DvRqKHAB3R-24" parent="1">
          <mxGeometry width="50" height="50" relative="1" as="geometry">
            <mxPoint x="605" y="209.5" as="sourcePoint" />
            <mxPoint x="755" y="379.5" as="targetPoint" />
          </mxGeometry>
        </mxCell>
        <mxCell id="vw8RD5YFw0DvRqKHAB3R-26" value="" style="endArrow=none;dashed=1;html=1;dashPattern=1 3;strokeWidth=2;" edge="1" parent="1">
          <mxGeometry width="50" height="50" relative="1" as="geometry">
            <mxPoint x="523" y="180" as="sourcePoint" />
            <mxPoint x="593" y="180" as="targetPoint" />
          </mxGeometry>
        </mxCell>
        <mxCell id="vw8RD5YFw0DvRqKHAB3R-27" value="" style="rounded=1;whiteSpace=wrap;html=1;fillColor=#dae8fc;strokeColor=none;" vertex="1" parent="1">
          <mxGeometry x="600" y="139.5" width="100" height="80" as="geometry" />
        </mxCell>
        <mxCell id="vw8RD5YFw0DvRqKHAB3R-28" value="VM-n" style="text;html=1;strokeColor=none;fillColor=none;align=center;verticalAlign=middle;whiteSpace=wrap;rounded=0;" vertex="1" parent="1">
          <mxGeometry x="630" y="117" width="40" height="20" as="geometry" />
        </mxCell>
        <mxCell id="vw8RD5YFw0DvRqKHAB3R-29" value="App" style="whiteSpace=wrap;html=1;aspect=fixed;fillColor=#1ba1e2;fontColor=#ffffff;strokeColor=none;" vertex="1" parent="1">
          <mxGeometry x="620" y="147" width="30" height="30" as="geometry" />
        </mxCell>
        <mxCell id="vw8RD5YFw0DvRqKHAB3R-30" value="Falken" style="ellipse;whiteSpace=wrap;html=1;fillColor=#008a00;strokeColor=#005700;fontColor=#ffffff;" vertex="1" parent="1">
          <mxGeometry x="650" y="187" width="40" height="20" as="geometry" />
        </mxCell>
        <mxCell id="vw8RD5YFw0DvRqKHAB3R-31" value="" style="endArrow=classic;startArrow=classic;html=1;edgeStyle=orthogonalEdgeStyle;rounded=0;exitX=1;exitY=0.5;exitDx=0;exitDy=0;entryX=0.5;entryY=0;entryDx=0;entryDy=0;" edge="1" source="vw8RD5YFw0DvRqKHAB3R-29" target="vw8RD5YFw0DvRqKHAB3R-30" parent="1">
          <mxGeometry width="50" height="50" relative="1" as="geometry">
            <mxPoint x="820" y="197" as="sourcePoint" />
            <mxPoint x="970" y="367" as="targetPoint" />
          </mxGeometry>
        </mxCell>
        <mxCell id="vw8RD5YFw0DvRqKHAB3R-36" value="" style="ellipse;whiteSpace=wrap;html=1;fillColor=none;dashed=1;strokeColor=#FF33FF;" vertex="1" parent="1">
          <mxGeometry x="40" y="133" width="170" height="120" as="geometry" />
        </mxCell>
        <mxCell id="vw8RD5YFw0DvRqKHAB3R-37" value="&lt;font color=&quot;#ff00ff&quot;&gt;Client&lt;/font&gt;" style="text;html=1;strokeColor=none;fillColor=none;align=center;verticalAlign=middle;whiteSpace=wrap;rounded=0;dashed=1;" vertex="1" parent="1">
          <mxGeometry x="30" y="120" width="40" height="20" as="geometry" />
        </mxCell>
        <mxCell id="vw8RD5YFw0DvRqKHAB3R-38" value="" style="ellipse;whiteSpace=wrap;html=1;dashed=1;fillColor=none;strokeColor=#009900;" vertex="1" parent="1">
          <mxGeometry x="220" y="107.5" width="280" height="160" as="geometry" />
        </mxCell>
        <mxCell id="vw8RD5YFw0DvRqKHAB3R-39" value="&lt;font color=&quot;#009900&quot;&gt;Server/s&lt;/font&gt;" style="text;html=1;strokeColor=none;fillColor=none;align=center;verticalAlign=middle;whiteSpace=wrap;rounded=0;dashed=1;" vertex="1" parent="1">
          <mxGeometry x="425" y="100" width="40" height="20" as="geometry" />
        </mxCell>
        <mxCell id="vw8RD5YFw0DvRqKHAB3R-41" value="&lt;font color=&quot;#009900&quot;&gt;Falken P2P network&lt;/font&gt;" style="shape=cylinder3;whiteSpace=wrap;html=1;boundedLbl=1;backgroundOutline=1;size=17;dashed=1;fillColor=none;direction=south;strokeWidth=3;strokeColor=#009900;" vertex="1" parent="1">
          <mxGeometry x="190" y="415" width="460" height="30" as="geometry" />
        </mxCell>
        <mxCell id="vw8RD5YFw0DvRqKHAB3R-44" value="" style="edgeStyle=elbowEdgeStyle;rounded=0;orthogonalLoop=1;jettySize=auto;html=1;strokeColor=#9999FF;strokeWidth=4;entryX=0.25;entryY=0.25;entryDx=0;entryDy=0;entryPerimeter=0;exitX=0.5;exitY=1;exitDx=0;exitDy=0;endArrow=none;endFill=0;elbow=vertical;" edge="1" parent="1" source="vw8RD5YFw0DvRqKHAB3R-8" target="vw8RD5YFw0DvRqKHAB3R-14">
          <mxGeometry relative="1" as="geometry">
            <Array as="points">
              <mxPoint x="150" y="310" />
            </Array>
          </mxGeometry>
        </mxCell>
        <mxCell id="vw8RD5YFw0DvRqKHAB3R-48" value="" style="endArrow=none;html=1;strokeColor=#9999FF;strokeWidth=4;entryX=0.5;entryY=1;entryDx=0;entryDy=0;exitX=0.4;exitY=0.1;exitDx=0;exitDy=0;exitPerimeter=0;edgeStyle=elbowEdgeStyle;rounded=0;elbow=vertical;" edge="1" parent="1" source="vw8RD5YFw0DvRqKHAB3R-14" target="vw8RD5YFw0DvRqKHAB3R-18">
          <mxGeometry width="50" height="50" relative="1" as="geometry">
            <mxPoint x="400" y="340" as="sourcePoint" />
            <mxPoint x="450" y="290" as="targetPoint" />
            <Array as="points">
              <mxPoint x="300" y="250" />
            </Array>
          </mxGeometry>
        </mxCell>
        <mxCell id="vw8RD5YFw0DvRqKHAB3R-49" value="" style="endArrow=none;html=1;strokeColor=#9999FF;strokeWidth=4;entryX=0.5;entryY=1;entryDx=0;entryDy=0;exitX=0.625;exitY=0.2;exitDx=0;exitDy=0;exitPerimeter=0;edgeStyle=elbowEdgeStyle;rounded=0;elbow=vertical;" edge="1" parent="1" source="vw8RD5YFw0DvRqKHAB3R-14" target="vw8RD5YFw0DvRqKHAB3R-23">
          <mxGeometry width="50" height="50" relative="1" as="geometry">
            <mxPoint x="680" y="380.5" as="sourcePoint" />
            <mxPoint x="610" y="239.5" as="targetPoint" />
            <Array as="points">
              <mxPoint x="640" y="296.5" />
            </Array>
          </mxGeometry>
        </mxCell>
        <mxCell id="vw8RD5YFw0DvRqKHAB3R-50" value="" style="endArrow=none;html=1;strokeColor=#9999FF;strokeWidth=4;entryX=0.5;entryY=1;entryDx=0;entryDy=0;exitX=0.88;exitY=0.25;exitDx=0;exitDy=0;exitPerimeter=0;edgeStyle=elbowEdgeStyle;rounded=0;elbow=vertical;" edge="1" parent="1" source="vw8RD5YFw0DvRqKHAB3R-14" target="vw8RD5YFw0DvRqKHAB3R-29">
          <mxGeometry width="50" height="50" relative="1" as="geometry">
            <mxPoint x="360" y="354" as="sourcePoint" />
            <mxPoint x="290" y="213" as="targetPoint" />
            <Array as="points">
              <mxPoint x="320" y="270" />
            </Array>
          </mxGeometry>
        </mxCell>
      </root>
    </mxGraphModel>
  </diagram>
</mxfile>
